# xmcd
#
# Track frame offsets:
#  150
#  17225
#  41232
#  54802
#  71672
#  82027
#  93565
#  103695
#  115087
#  133250
#  152672
#  180600
#  200250
#  227142
#
# Disc length: 3574 seconds
#
# Revision: 0
# Processed by: cddbd v1.4PL0 Copyright (c) Steve Scherf et al.
# Submitted via: AltoMP3_Maker 3.0
#
DISCID=bd0df40e
DTITLE=Motociclismo - Free Bird
DYEAR=1900
DGENRE=
TTITLE0=Alice Cooper#He's Back
TTITLE1=Joe Walsh#Rocky Mountain Way
TTITLE2=John Lee Hooker#One Bourbon, One Scotc
TTITLE3=The Mamas and The Papas#Dancing In The S
TTITLE4=Chuck Berry#Down The Road Apiece
TTITLE5=Buddy Holly#Peggy Sue
TTITLE6=Bill Haley#Rock Around The Clock
TTITLE7=Bo Diddley#Bo Diddley
TTITLE8=The Commitments#Mustang Sally
TTITLE9=Nik Kershaw#Human Racing
TTITLE10=Krokus#Speed Up
TTITLE11=Gary Moore#Back On The Streets
TTITLE12=Diamond Head#In The Heat Of The Night
TTITLE13=Lynrd Skynrd#Free Bird
EXTD=
EXTT0=
EXTT1=
EXTT2=
EXTT3=
EXTT4=
EXTT5=
EXTT6=
EXTT7=
EXTT8=
EXTT9=
EXTT10=
EXTT11=
EXTT12=
EXTT13=
PLAYORDER=
